HIERARCHY
ROOT Hips
{
	OFFSET 0.00000 0.00000 0.00000
	CHANNELS 6 Xposition Yposition Zposition Zrotation Yrotation Xrotation 
	JOINT LHipJoint
	{
		OFFSET 0 0 0
		CHANNELS 3 Zrotation Yrotation Xrotation
		JOINT LeftHip
		{
			OFFSET 1.28858 -1.83292 1.03970
			CHANNELS 3 Zrotation Yrotation Xrotation
			JOINT LeftKnee
			{
				OFFSET 2.47846 -6.80952 0.00000
				CHANNELS 3 Zrotation Yrotation Xrotation
				JOINT LeftAnkle
				{
					OFFSET 2.75274 -7.56311 0.00000
					CHANNELS 3 Zrotation Yrotation Xrotation
					JOINT LeftToe
					{
						OFFSET 0.12848 -0.35301 1.68223
						CHANNELS 3 Zrotation Yrotation Xrotation
						End Site
						{
							OFFSET 0.00000 -0.00000 0.87311
						}
					}
				}
			}
		}
	}
	JOINT RHipJoint
	{
		OFFSET 0 0 0
		CHANNELS 3 Zrotation Yrotation Xrotation
		JOINT RightHip
		{
			OFFSET -1.31183 -1.83292 1.03970
			CHANNELS 3 Zrotation Yrotation Xrotation
			JOINT RightKnee
			{
				OFFSET -2.44740 -6.72417 0.00000
				CHANNELS 3 Zrotation Yrotation Xrotation
				JOINT RightAnkle
				{
					OFFSET -2.67343 -7.34519 0.00000
					CHANNELS 3 Zrotation Yrotation Xrotation
					JOINT RightToe
					{
						OFFSET -0.16914 -0.46471 1.77626
						CHANNELS 3 Zrotation Yrotation Xrotation
						End Site
						{
							OFFSET -0.00000 -0.00000 0.92777
						}
					}
				}
			}
		}
	}
	JOINT lowerback
	{
		OFFSET 0 0 0
		CHANNELS 3 Zrotation Yrotation Xrotation
		JOINT Chest
		{
			OFFSET 0.01249 2.14252 0.03842
			CHANNELS 3 Zrotation Yrotation Xrotation
			JOINT Chest2
			{
				OFFSET -0.02957 2.14199 -0.03751
				CHANNELS 3 Zrotation Yrotation Xrotation
				JOINT lowerneck
				{
					OFFSET 0 0 0
					CHANNELS 3 Zrotation Yrotation Xrotation
					JOINT Neck
					{
						OFFSET -0.01678 1.65709 -0.05476
						CHANNELS 3 Zrotation Yrotation Xrotation
						JOINT Head
						{
							OFFSET 0.07912 1.58331 -0.11843
							CHANNELS 3 Zrotation Yrotation Xrotation
							End Site
							{
								OFFSET 0.03298 1.73940 -0.04271
							}
						}
					}
				}
				JOINT LeftCollar
				{
					OFFSET 0 0 0
					CHANNELS 3 Zrotation Yrotation Xrotation
					JOINT LeftShoulder
					{
						OFFSET 3.39556 1.16496 0.08673
CHANNELS 3 Zrotation Xrotation Yrotation
						JOINT LeftElbow
						{
OFFSET 0 -5.239100 -0.000000
CHANNELS 3 Zrotation Xrotation Yrotation
							JOINT LeftWrist
							{
OFFSET 0 -3.314670 0.000000
CHANNELS 3 Zrotation Xrotation Yrotation
								JOINT lhand
								{
									OFFSET 0 0 0
CHANNELS 3 Zrotation Xrotation Yrotation
									JOINT LFingers
									{
OFFSET 0 -0.965900 0.000000
CHANNELS 3 Zrotation Xrotation Yrotation
										End Site
										{
OFFSET 0 -0.778730 0.000000
										}
									}
								}
								JOINT LThumb
								{
OFFSET 0 0.000000 0.000000
CHANNELS 3 Zrotation Xrotation Yrotation
									End Site
									{
OFFSET 0 -0.790620 0.790620
									}
								}
							}
						}
					}
				}
				JOINT RightCollar
				{
					OFFSET 0 0 0
					CHANNELS 3 Zrotation Yrotation Xrotation
					JOINT RightShoulder
					{
						OFFSET -3.27193 1.31331 0.33940
CHANNELS 3 Zrotation Xrotation Yrotation
						JOINT RightElbow
						{
OFFSET 0 -5.302520 0.000000
CHANNELS 3 Zrotation Xrotation Yrotation
							JOINT RightWrist
							{
OFFSET 0 -3.678750 0.000000
CHANNELS 3 Zrotation Xrotation Yrotation
								JOINT rhand
								{
									OFFSET 0 0 0
CHANNELS 3 Zrotation Xrotation Yrotation
									JOINT RFingers
									{
OFFSET 0 -0.594810 0.000000
CHANNELS 3 Zrotation Xrotation Yrotation
										End Site
										{
OFFSET 0 -0.479550 0.000000
										}
									}
								}
								JOINT RThumb
								{
OFFSET 0 0.000000 0.000000
CHANNELS 3 Zrotation Xrotation Yrotation
									End Site
									{
OFFSET 0 -0.486870 0.486870
									}
								}
							}
						}
					}
				}
			}
		}
	}
}
MOTION
Frames: 7
Frame Time: 0.008333333333333333
8.463200 18.214000 -13.497700 3.442700 -0.844000 2.028300 0.000000 0.000000 0.000000 -21.018600 0.820100 1.068400 0.123300 2.263300 6.234000 -0.086700 -7.859000 -3.401200 1.982400 8.829300 25.262700 0.000000 0.000000 0.000000 17.479000 2.122200 6.817600 -0.024100 -1.002700 2.756100 -0.778500 -11.320400 -24.345400 -0.005300 -0.468200 1.286500 -2.596900 0.963300 -8.118500 -1.858000 1.610200 -0.131700 -0.279000 0.761200 4.401200 -0.827200 -1.597500 3.393800 0.600700 -2.152300 -1.630000 0.362100 -1.078600 -1.046900 -0.000000 0.000000 0.000000 7.391900 7.495300 -45.831500 14.533900 -23.492800 3.037700 -10.582200 -27.098300 13.257200 0.000000 0.000000 0.000000 -7.125000 0.000000 0.000000 -25.381000 17.096200 -18.747200 -0.000000 0.000000 0.000000 -3.942600 13.844400 33.948900 -15.791800 -25.237500 -3.556700 31.250900 -36.995700 30.363900 0.000000 0.000000 0.000000 7.125000 0.000000 -0.000000 60.059300 50.896600 -12.674600
8.437787 18.207281 -13.490921 3.357161 -0.821087 2.065673 0.000000 0.000000 0.000000 -20.870908 0.617566 1.051642 0.128237 2.307939 6.357549 -0.071186 -7.774473 -3.741938 1.798896 8.434038 24.040475 0.000000 0.000000 0.000000 17.755003 2.263687 6.965013 -0.021744 -0.952086 2.617015 -0.784606 -11.495112 -24.560840 -0.022500 -0.968441 2.661827 -2.457589 0.939533 -8.416031 -1.780099 1.576167 -0.049189 -0.274283 0.743452 4.656221 -0.859836 -1.628909 3.728583 0.571787 -2.198494 -2.082446 0.367265 -1.100605 -1.246972 0.000000 0.000000 0.000000 7.078572 7.412533 -45.262017 14.326419 -23.199358 2.955448 -10.930218 -26.396280 12.614175 0.000000 0.000000 0.000000 -7.125000 0.000000 0.000000 -25.699490 17.675868 -18.669042 0.000000 0.000000 0.000000 -4.038201 14.003191 37.604953 -15.783117 -25.225739 -3.553019 25.008561 -31.712969 28.710569 0.000000 0.000000 0.000000 7.125000 0.000000 0.000000 53.994678 50.904812 -10.504824
8.418700 18.205525 -13.480690 3.595900 -0.677229 1.934043 0.000000 0.000000 0.000000 -21.136875 0.627070 1.184249 0.132130 2.342897 6.454338 -0.074073 -7.873374 -3.762344 1.787985 8.409734 23.965654 0.000000 0.000000 0.000000 17.494739 1.926330 7.186699 -0.018370 -0.875861 2.407208 -0.770105 -11.457876 -24.404425 -0.017865 -0.861952 2.369067 -2.553437 0.892086 -8.516183 -1.830167 1.535088 0.143472 -0.274416 0.717830 4.913557 -1.054086 -1.533564 3.508967 0.804686 -2.072068 -2.059635 0.466227 -1.039545 -1.198844 0.000000 0.000000 0.000000 6.827394 7.240317 -44.644154 14.053725 -22.811421 2.848861 -11.243150 -25.641158 12.791770 0.000000 0.000000 0.000000 -7.125000 0.000000 0.000000 -25.861030 17.503325 -18.928339 0.000000 0.000000 0.000000 -4.037553 14.029287 40.414235 -15.944649 -25.445512 -3.622122 20.726180 -27.450775 28.122100 0.000000 0.000000 0.000000 7.125000 0.000000 0.000000 50.183385 51.244959 -9.833679
8.397442 18.203376 -13.480148 3.523158 -0.661392 1.881139 0.000000 0.000000 0.000000 -20.968473 0.718992 1.185807 0.134233 2.361377 6.505535 -0.077081 -7.917085 -3.723899 1.784329 8.401715 23.940960 0.000000 0.000000 0.000000 17.625354 1.742218 7.199421 -0.017962 -0.865496 2.378826 -0.759966 -11.387613 -24.252983 -0.012714 -0.729202 2.003855 -2.358159 0.871672 -8.446578 -1.784646 1.486037 0.224405 -0.343384 0.697181 4.963065 -1.335513 -1.392098 3.622333 1.040653 -1.890894 -2.198272 0.585318 -0.950683 -1.260347 0.000000 0.000000 0.000000 6.594481 7.089188 -44.169352 13.722100 -22.336025 2.721596 -11.351760 -24.909153 13.198780 0.000000 0.000000 0.000000 -7.125000 0.000000 0.000000 -25.859287 17.126902 -19.170495 0.000000 0.000000 0.000000 -4.129555 13.915266 42.102526 -16.087233 -25.638806 -3.683664 19.772539 -26.260818 28.174411 0.000000 0.000000 0.000000 7.125000 0.000000 0.000000 49.473247 51.450903 -9.915430
8.375101 18.202387 -13.488119 3.498790 -0.754370 1.956397 0.000000 0.000000 0.000000 -20.856723 0.684468 1.066704 0.135275 2.370810 6.531567 -0.073616 -7.846181 -3.748368 1.808107 8.454286 24.102656 0.000000 0.000000 0.000000 17.726525 1.779351 6.994694 -0.019737 -0.907863 2.495496 -0.748320 -11.381994 -24.148998 -0.010263 -0.655367 1.801092 -2.220477 0.882024 -8.333424 -1.754949 1.478890 0.165249 -0.392852 0.698138 4.840078 -0.817988 -1.859172 4.397593 0.261854 -2.521223 -3.603508 0.293686 -1.251923 -1.855024 0.000000 0.000000 0.000000 6.455257 7.144262 -43.898733 13.452834 -21.946994 2.620088 -10.961065 -24.273895 13.492326 0.000000 0.000000 0.000000 -7.125000 0.000000 0.000000 -25.573969 16.869609 -19.069350 0.000000 0.000000 0.000000 -4.282209 14.039690 43.400263 -16.328465 -25.963956 -3.788612 18.667079 -25.536732 28.287384 0.000000 0.000000 0.000000 7.125000 0.000000 0.000000 48.683807 51.728823 -10.064789
8.354142 18.204005 -13.496135 3.664837 -0.806326 2.020405 0.000000 0.000000 0.000000 -20.987735 0.591673 1.003164 0.134059 2.360127 6.502133 -0.067433 -7.751161 -3.821946 1.792643 8.420104 23.997549 0.000000 0.000000 0.000000 17.615607 1.878106 6.886541 -0.019948 -0.912788 2.508758 -0.742227 -11.418681 -24.132728 -0.012210 -0.712575 1.958183 -2.344808 0.874585 -8.314590 -1.744634 1.481229 0.209140 -0.312173 0.695600 4.871898 -0.642789 -2.058465 4.458249 -0.077957 -2.794378 -4.085293 0.170839 -1.380283 -2.028777 0.000000 0.000000 0.000000 6.301933 7.075824 -43.536256 13.270099 -21.681686 2.552210 -10.310851 -23.740552 13.280869 0.000000 0.000000 0.000000 -7.125000 0.000000 0.000000 -25.211058 17.081665 -18.600442 0.000000 0.000000 0.000000 -4.514080 14.057078 44.457330 -16.575864 -26.295191 -3.897585 16.672332 -24.067317 28.313977 0.000000 0.000000 0.000000 7.125000 0.000000 0.000000 47.079807 52.103796 -10.077537
8.332227 18.204700 -13.501395 3.721999 -0.854588 2.073685 0.000000 0.000000 0.000000 -20.970476 0.560245 0.967477 0.130752 2.331094 6.421578 -0.062605 -7.655523 -3.860331 1.785257 8.403709 23.947121 0.000000 0.000000 0.000000 17.650916 1.994378 6.906464 -0.018152 -0.870002 2.391149 -0.742486 -11.460288 -24.174536 -0.017881 -0.863809 2.374195 -2.367229 0.880453 -8.252543 -1.728009 1.487667 0.193710 -0.282611 0.698624 4.819698 -0.826508 -2.022331 4.397718 0.134614 -2.746621 -3.983993 0.265387 -1.359665 -1.979177 0.000000 0.000000 0.000000 6.265141 7.073145 -43.240603 13.112640 -21.452037 2.494359 -9.847017 -23.410311 13.381856 0.000000 0.000000 0.000000 -7.125000 0.000000 0.000000 -24.910431 17.000104 -18.376350 0.000000 0.000000 0.000000 -4.639908 14.167573 44.877809 -16.667908 -26.417923 -3.938435 15.156113 -22.482671 27.830105 0.000000 0.000000 0.000000 7.125000 0.000000 0.000000 45.418167 52.012391 -9.458178
